# Blender v2.64 (sub 0) OBJ File: ''
# www.blender.org
mtllib cylinder_high.mtl
o Cylinder_Cylinder.001
v 1.000000 0.000000 -1.000000
v 1.000000 0.000000 1.000000
v 0.995185 -0.098017 -1.000000
v 0.995185 -0.098017 1.000000
v 0.980785 -0.195090 -1.000000
v 0.980785 -0.195090 1.000000
v 0.956940 -0.290285 -1.000000
v 0.956940 -0.290285 1.000000
v 0.923880 -0.382683 -1.000000
v 0.923880 -0.382683 1.000000
v 0.881921 -0.471397 -1.000000
v 0.881921 -0.471397 1.000000
v 0.831470 -0.555570 -1.000000
v 0.831470 -0.555570 1.000000
v 0.773010 -0.634393 -1.000000
v 0.773010 -0.634393 1.000000
v 0.707107 -0.707107 -1.000000
v 0.707107 -0.707107 1.000000
v 0.634393 -0.773010 -1.000000
v 0.634393 -0.773010 1.000000
v 0.555570 -0.831470 -1.000000
v 0.555570 -0.831470 1.000000
v 0.471397 -0.881921 -1.000000
v 0.471397 -0.881921 1.000000
v 0.382683 -0.923880 -1.000000
v 0.382683 -0.923880 1.000000
v 0.290285 -0.956940 -1.000000
v 0.290285 -0.956940 1.000000
v 0.195090 -0.980785 -1.000000
v 0.195090 -0.980785 1.000000
v 0.098017 -0.995185 -1.000000
v 0.098017 -0.995185 1.000000
v -0.000000 -1.000000 -1.000000
v -0.000000 -1.000000 1.000000
v -0.098017 -0.995185 -1.000000
v -0.098017 -0.995185 1.000000
v -0.195091 -0.980785 -1.000000
v -0.195091 -0.980785 1.000000
v -0.290285 -0.956940 -1.000000
v -0.290285 -0.956940 1.000000
v -0.382684 -0.923879 -1.000000
v -0.382684 -0.923879 1.000000
v -0.471397 -0.881921 -1.000000
v -0.471397 -0.881921 1.000000
v -0.555571 -0.831469 -1.000000
v -0.555571 -0.831469 1.000000
v -0.634394 -0.773010 -1.000000
v -0.634394 -0.773010 1.000000
v -0.707107 -0.707106 -1.000000
v -0.707107 -0.707106 1.000000
v -0.773011 -0.634393 -1.000000
v -0.773011 -0.634393 1.000000
v -0.831470 -0.555570 -1.000000
v -0.831470 -0.555570 1.000000
v -0.881922 -0.471396 -1.000000
v -0.881922 -0.471396 1.000000
v -0.923880 -0.382683 -1.000000
v -0.923880 -0.382683 1.000000
v -0.956941 -0.290284 -1.000000
v -0.956941 -0.290284 1.000000
v -0.980785 -0.195090 -1.000000
v -0.980785 -0.195090 1.000000
v -0.995185 -0.098016 -1.000000
v -0.995185 -0.098016 1.000000
v -1.000000 0.000001 -1.000000
v -1.000000 0.000001 1.000000
v -0.995185 0.098018 -1.000000
v -0.995185 0.098018 1.000000
v -0.980785 0.195091 -1.000000
v -0.980785 0.195091 1.000000
v -0.956940 0.290286 -1.000000
v -0.956940 0.290286 1.000000
v -0.923879 0.382684 -1.000000
v -0.923879 0.382684 1.000000
v -0.881921 0.471398 -1.000000
v -0.881921 0.471398 1.000000
v -0.831469 0.555571 -1.000000
v -0.831469 0.555571 1.000000
v -0.773010 0.634394 -1.000000
v -0.773010 0.634394 1.000000
v -0.707106 0.707108 -1.000000
v -0.707106 0.707108 1.000000
v -0.634393 0.773011 -1.000000
v -0.634393 0.773011 1.000000
v -0.555570 0.831470 -1.000000
v -0.555570 0.831470 1.000000
v -0.471396 0.881922 -1.000000
v -0.471396 0.881922 1.000000
v -0.382683 0.923880 -1.000000
v -0.382683 0.923880 1.000000
v -0.290285 0.956940 -1.000000
v -0.290285 0.956940 1.000000
v -0.195090 0.980785 -1.000000
v -0.195090 0.980785 1.000000
v -0.098017 0.995185 -1.000000
v -0.098017 0.995185 1.000000
v -0.000000 1.000000 -1.000000
v -0.000000 1.000000 1.000000
v 0.098016 0.995185 -1.000000
v 0.098016 0.995185 1.000000
v 0.195089 0.980785 -1.000000
v 0.195089 0.980785 1.000000
v 0.290284 0.956941 -1.000000
v 0.290284 0.956941 1.000000
v 0.382682 0.923880 -1.000000
v 0.382682 0.923880 1.000000
v 0.471395 0.881922 -1.000000
v 0.471395 0.881922 1.000000
v 0.555569 0.831471 -1.000000
v 0.555569 0.831471 1.000000
v 0.634392 0.773012 -1.000000
v 0.634392 0.773012 1.000000
v 0.707105 0.707108 -1.000000
v 0.707105 0.707108 1.000000
v 0.773009 0.634395 -1.000000
v 0.773009 0.634395 1.000000
v 0.831468 0.555572 -1.000000
v 0.831468 0.555572 1.000000
v 0.881920 0.471399 -1.000000
v 0.881920 0.471399 1.000000
v 0.923878 0.382686 -1.000000
v 0.923878 0.382686 1.000000
v 0.956939 0.290288 -1.000000
v 0.956939 0.290288 1.000000
v 0.980785 0.195093 -1.000000
v 0.980785 0.195093 1.000000
v 0.995184 0.098021 -1.000000
v 0.995184 0.098021 1.000000
vn 0.998795 -0.049068 0.000000
vn 0.989177 -0.146731 0.000000
vn 0.970031 -0.242980 0.000000
vn 0.941544 -0.336890 0.000000
vn 0.903989 -0.427555 0.000000
vn 0.857729 -0.514103 0.000000
vn 0.803208 -0.595699 0.000000
vn 0.740951 -0.671559 0.000000
vn 0.671559 -0.740951 0.000000
vn 0.595699 -0.803207 0.000000
vn 0.514103 -0.857729 0.000000
vn 0.427555 -0.903989 0.000000
vn 0.336890 -0.941544 0.000000
vn 0.242980 -0.970031 0.000000
vn 0.146730 -0.989177 0.000000
vn 0.049068 -0.998795 0.000000
vn -0.049068 -0.998795 0.000000
vn -0.146731 -0.989177 0.000000
vn -0.242981 -0.970031 0.000000
vn -0.336890 -0.941544 0.000000
vn -0.427555 -0.903989 0.000000
vn -0.514103 -0.857728 0.000000
vn -0.595699 -0.803207 0.000000
vn -0.671560 -0.740951 0.000000
vn -0.740951 -0.671559 0.000000
vn -0.803208 -0.595699 0.000000
vn -0.857729 -0.514102 0.000000
vn -0.903989 -0.427555 0.000000
vn -0.941544 -0.336889 0.000000
vn -0.970031 -0.242980 0.000000
vn -0.989177 -0.146729 0.000000
vn -0.998796 -0.049067 0.000000
vn -0.998795 0.049068 0.000000
vn -0.989176 0.146731 0.000000
vn -0.970031 0.242981 0.000000
vn -0.941544 0.336891 0.000000
vn -0.903989 0.427556 0.000000
vn -0.857728 0.514104 0.000000
vn -0.803207 0.595700 0.000000
vn -0.740951 0.671560 0.000000
vn -0.671558 0.740952 0.000000
vn -0.595699 0.803208 0.000000
vn -0.514102 0.857729 0.000000
vn -0.427555 0.903989 0.000000
vn -0.336889 0.941544 0.000000
vn -0.242980 0.970031 0.000000
vn -0.146731 0.989176 0.000000
vn -0.049068 0.998795 0.000000
vn 0.049067 0.998795 0.000000
vn 0.146730 0.989177 0.000000
vn 0.242979 0.970032 0.000000
vn 0.336889 0.941544 0.000000
vn 0.427554 0.903990 0.000000
vn 0.514101 0.857729 0.000000
vn 0.595698 0.803208 0.000000
vn 0.671557 0.740953 0.000000
vn 0.740950 0.671560 0.000000
vn 0.803206 0.595701 0.000000
vn 0.857727 0.514105 0.000000
vn 0.903988 0.427557 0.000000
vn 0.941543 0.336893 0.000000
vn 0.970030 0.242983 0.000000
vn 0.989176 0.146733 0.000000
vn 0.998795 0.049070 0.000000
usemtl 
s off
f 1//1 2//1 4//1 3//1
f 3//2 4//2 6//2 5//2
f 5//3 6//3 8//3 7//3
f 7//4 8//4 10//4 9//4
f 9//5 10//5 12//5 11//5
f 11//6 12//6 14//6 13//6
f 13//7 14//7 16//7 15//7
f 15//8 16//8 18//8 17//8
f 17//9 18//9 20//9 19//9
f 19//10 20//10 22//10 21//10
f 21//11 22//11 24//11 23//11
f 23//12 24//12 26//12 25//12
f 25//13 26//13 28//13 27//13
f 27//14 28//14 30//14 29//14
f 29//15 30//15 32//15 31//15
f 31//16 32//16 34//16 33//16
f 33//17 34//17 36//17 35//17
f 35//18 36//18 38//18 37//18
f 37//19 38//19 40//19 39//19
f 39//20 40//20 42//20 41//20
f 41//21 42//21 44//21 43//21
f 43//22 44//22 46//22 45//22
f 45//23 46//23 48//23 47//23
f 47//24 48//24 50//24 49//24
f 49//25 50//25 52//25 51//25
f 51//26 52//26 54//26 53//26
f 53//27 54//27 56//27 55//27
f 55//28 56//28 58//28 57//28
f 57//29 58//29 60//29 59//29
f 59//30 60//30 62//30 61//30
f 61//31 62//31 64//31 63//31
f 63//32 64//32 66//32 65//32
f 65//33 66//33 68//33 67//33
f 67//34 68//34 70//34 69//34
f 69//35 70//35 72//35 71//35
f 71//36 72//36 74//36 73//36
f 73//37 74//37 76//37 75//37
f 75//38 76//38 78//38 77//38
f 77//39 78//39 80//39 79//39
f 79//40 80//40 82//40 81//40
f 81//41 82//41 84//41 83//41
f 83//42 84//42 86//42 85//42
f 85//43 86//43 88//43 87//43
f 87//44 88//44 90//44 89//44
f 89//45 90//45 92//45 91//45
f 91//46 92//46 94//46 93//46
f 93//47 94//47 96//47 95//47
f 95//48 96//48 98//48 97//48
f 97//49 98//49 100//49 99//49
f 99//50 100//50 102//50 101//50
f 101//51 102//51 104//51 103//51
f 103//52 104//52 106//52 105//52
f 105//53 106//53 108//53 107//53
f 107//54 108//54 110//54 109//54
f 109//55 110//55 112//55 111//55
f 111//56 112//56 114//56 113//56
f 113//57 114//57 116//57 115//57
f 115//58 116//58 118//58 117//58
f 117//59 118//59 120//59 119//59
f 119//60 120//60 122//60 121//60
f 121//61 122//61 124//61 123//61
f 123//62 124//62 126//62 125//62
f 125//63 126//63 128//63 127//63
f 2//64 1//64 127//64 128//64
