# Blender v2.64 (sub 0) OBJ File: ''
# www.blender.org
mtllib half_cube.mtl
o Plane
v -1.200000 -1.592454 -0.400000
v -1.200001 -1.592456 0.400000
v 1.200001 1.592456 0.400000
v 1.200000 1.592457 -0.400000
v 1.200000 -1.600000 -0.400000
v -1.200000 -1.600000 -0.400000
v 1.199999 -1.600001 0.400000
v -1.200001 -1.599999 0.400000
v -1.200000 -1.592454 -0.400000
v -1.200000 -1.592454 -0.400000
v -1.200000 -1.600000 -0.400000
v -1.200000 -1.600000 -0.400000
v -1.200001 -1.592456 0.400000
v -1.200001 -1.592456 0.400000
v 1.200001 1.592456 0.400000
v 1.200001 1.592456 0.400000
v -1.200001 -1.599999 0.400000
v -1.200001 -1.599999 0.400000
v 1.199999 -1.600001 0.400000
v 1.199999 -1.600001 0.400000
v 1.200000 -1.600000 -0.400000
v 1.200000 -1.600000 -0.400000
v 1.200000 1.592457 -0.400000
v 1.200000 1.592457 -0.400000
vn -0.798636 0.601815 0.000001
vn -0.000000 0.000000 -1.000000
vn 0.000000 -0.000000 1.000000
vn 1.000000 -0.000000 0.000000
vn -0.000000 -1.000000 -0.000001
vn -1.000000 -0.000008 -0.000001
usemtl 
s off
f 9//1 2//1 3//1 4//1
f 1//2 23//2 5//2 6//2
f 13//3 17//3 7//3 15//3
f 16//4 19//4 21//4 24//4
f 20//5 8//5 11//5 22//5
f 14//6 10//6 12//6 18//6
