# Blender v2.64 (sub 0) OBJ File: ''
# www.blender.org
mtllib multi_base.mtl
o Cube
v 107.864967 -28.172707 -6.298704
v 123.662956 -28.172707 9.028820
v -123.640816 -28.172707 9.028820
v -107.842789 -28.172707 -6.298704
v 107.865021 61.903465 -6.298697
v 123.662872 61.903465 9.028828
v -123.640846 61.903465 9.028820
v -107.842812 61.903465 -6.298704
vn 0.000000 -1.000000 0.000000
vn 0.000000 1.000000 0.000000
vn 0.696341 0.000000 -0.717711
vn -0.000000 -0.000000 1.000000
vn -0.696338 -0.000000 -0.717714
vn 0.000000 0.000000 -1.000000
usemtl Material
s off
f 1//1 2//1 3//1 4//1
f 5//2 8//2 7//2 6//2
f 1//3 5//3 6//3 2//3
f 2//4 6//4 7//4 3//4
f 3//5 7//5 8//5 4//5
f 5//6 1//6 4//6 8//6
