# Blender v2.64 (sub 0) OBJ File: ''
# www.blender.org
mtllib multi_base_highres.mtl
o Cube.001
v 107.864967 -28.172703 -6.298714
v 123.662956 -28.172710 9.028811
v -123.640816 -28.172710 9.028811
v -107.842789 -28.172703 -6.298714
v 107.865021 61.903465 -6.298677
v -107.842812 61.903465 -6.298684
v -123.640846 61.903465 9.028841
v 123.662872 61.903465 9.028849
v 107.864967 -28.172703 -6.298714
v 107.865021 61.903465 -6.298677
v 123.662872 61.903465 9.028849
v 123.662956 -28.172710 9.028811
v 123.662956 -28.172710 9.028811
v 123.662872 61.903465 9.028849
v -123.640846 61.903465 9.028841
v -123.640816 -28.172710 9.028811
v -123.640816 -28.172710 9.028811
v -123.640846 61.903465 9.028841
v -107.842812 61.903465 -6.298684
v -107.842789 -28.172703 -6.298714
v 107.865021 61.903465 -6.298677
v 107.864967 -28.172703 -6.298714
v -107.842789 -28.172703 -6.298714
v -107.842812 61.903465 -6.298684
vn 0.000000 -1.000000 -0.000000
vn 0.000000 1.000000 0.000000
vn 0.696341 0.000000 -0.717711
vn -0.000000 -0.000000 1.000000
vn -0.696338 0.000000 -0.717714
vn 0.000000 0.000000 -1.000000
usemtl Material.001
s off
f 1//1 2//1 3//1 4//1
f 5//2 6//2 7//2 8//2
f 9//3 10//3 11//3 12//3
f 13//4 14//4 15//4 16//4
f 17//5 18//5 19//5 20//5
f 21//6 22//6 23//6 24//6
